<svg xmlns="http://www.w3.org/2000/svg" id="Layer_1" data-name="Layer 1" viewBox="0 0 355.17 171.59">
    <title>
        Museumofthingsforpeople
    </title>
    <polygon points="151.26 60.93 159.29 78.92 163.66 78.92 171.79 60.89 171.79 78.92 177.41 78.92 177.41 49.77 171.96 49.77 161.54 72.01 151.09 49.77 145.63 49.77 145.63 78.92 151.26 78.92 151.26 60.93"/>
    <path d="M198.38,74.67v4.25h5.37V57.26h-5.37v13c-.37,1.16-2,4.33-5.58,4.33-2.29,0-4.42-1.42-4.42-5.17V57.26h-5.33v12.5c0,6.78,4.09,9.49,8.08,9.49A7.84,7.84,0,0,0,198.38,74.67Z"/>
    <path d="M225.05,72.67c0-3.91-2.92-5.25-6.17-6.41l-2.54-.88c-1.41-.54-2.08-1.25-2.08-2.25,0-1.21,1.13-2,2.46-2a3.28,3.28,0,0,1,3.12,2.29l4.46-1.21a7.79,7.79,0,0,0-7.79-5.37c-3.95,0-7.41,2.33-7.41,6.2,0,2.83,1.83,5,6,6.5l2.51.88c1.49.58,2.24,1.33,2.24,2.28,0,1.34-1.41,2.38-3.16,2.38a4.35,4.35,0,0,1-4.17-3l-4.24,1.29c.87,3.75,4,6,8.41,6S225.05,77.09,225.05,72.67Z"/>
    <path d="M239.77,79.34c4.16,0,6.83-1.3,8.74-3.34l-3-2.87a8.93,8.93,0,0,1-5.62,1.66c-3.12,0-5.62-1.62-6.29-4.78h16.2c1.21-9.37-5.54-13.12-10.45-13.12a11.1,11.1,0,0,0-11.08,11.24C228.31,75.59,234.35,79.34,239.77,79.34Zm-.38-17.87a5.8,5.8,0,0,1,5.75,4.66H233.68A5.89,5.89,0,0,1,239.39,61.47Z"/>
    <path d="M262.39,79.25a7.86,7.86,0,0,0,7.25-4.58v4.25H275V57.26h-5.37v13c-.37,1.16-2,4.33-5.58,4.33-2.29,0-4.42-1.42-4.42-5.17V57.26h-5.33v12.5C254.31,76.54,258.39,79.25,262.39,79.25Z"/>
    <path d="M286.06,66.55c.46-2.58,2.21-5,5.37-5,2.67,0,4.71,2.08,4.71,5.38v12h5.38V66.55c.5-2.42,2.37-5,5.37-5s4.7,2.08,4.7,5.38v12h5.34v-12c0-7.16-4.08-9.95-8.46-9.95a8.63,8.63,0,0,0-8,5,8.56,8.56,0,0,0-7.78-5c-4.42,0-6.54,3.5-6.67,4.74V57.26h-5.37V78.92h5.37Z"/>
    <path d="M155.59,121c4.91,0,11.28-3.62,11.28-11.21s-6.37-11.24-11.28-11.24-11.29,3.75-11.29,11.24S150.67,121,155.59,121Zm0-17.7a6.49,6.49,0,1,1-6.08,6.49A6.16,6.16,0,0,1,155.59,103.31Z"/>
    <path d="M172.93,97.94v1h-2.75v4.41h2.75v17.24h5.37V103.35h5.12V98.94H178.3v-1c0-1.3.42-2.8,2.42-2.8a6.54,6.54,0,0,1,2.87.67l1.88-3.7a10.43,10.43,0,0,0-5.33-1.38C177.47,90.73,172.93,91.6,172.93,97.94Z"/>
    <path d="M209.93,93.86H204.6v5.08h-3v4.41h3v10.79c0,5.58,2.62,6.7,5.71,6.7a9.33,9.33,0,0,0,4.24-.75v-4.45a7.63,7.63,0,0,1-2.83.5c-1.41,0-1.79-1-1.79-2.08V103.35h4.62V98.94h-4.62Z"/>
    <path d="M224.85,91.14h-5.38v29.45h5.38v-13c.37-1.17,2-4.33,5.58-4.33,2.29,0,4.41,1.41,4.41,5.16v12.16h5.33V108.1c0-6.79-4.08-9.5-8.08-9.5a7.84,7.84,0,0,0-7.24,4.58Z"/>
    <rect width="5.37" height="5.13" x="245.73" y="91.14"/>
    <rect width="5.37" height="21.66" x="245.73" y="98.94"/>
    <path d="M272.14,108.43v12.16h5.33V108.1c0-6.79-4.08-9.5-8.08-9.5a7.87,7.87,0,0,0-7.25,4.58V98.94h-5.37v21.65h5.37v-13c.38-1.17,2-4.33,5.58-4.33C270,103.27,272.14,104.68,272.14,108.43Z"/>
    <path d="M304.52,120.59V98.94h-5.33v3.32c-.25-1.33-3.17-3.7-6.84-3.7-4.62,0-10.37,3.75-10.37,11.2,0,7.63,5.75,11.25,10.37,11.25,3.67,0,6.59-2.25,6.84-4.09v3.67c0,2.08-1.71,4.13-5.54,4.13a12.35,12.35,0,0,1-6-1.25v4.41a12.43,12.43,0,0,0,6,1.29C298.23,129.17,304.52,127.13,304.52,120.59Zm-11.29-4.33c-3.12,0-6-2.16-6-6.5s2.92-6.45,6-6.45a6.48,6.48,0,0,1,0,13Z"/>
    <path d="M309.86,104.77c0,2.83,1.84,5,6,6.49l2.5.88c1.5.58,2.25,1.33,2.25,2.29,0,1.33-1.42,2.37-3.17,2.37a4.35,4.35,0,0,1-4.16-3L309,115.05c.88,3.75,4,6,8.41,6s8.37-2.29,8.37-6.7c0-3.92-2.91-5.25-6.16-6.42l-2.54-.87c-1.42-.54-2.08-1.26-2.08-2.25,0-1.21,1.12-2,2.45-2a3.3,3.3,0,0,1,3.13,2.29l4.45-1.21a7.78,7.78,0,0,0-7.78-5.37C313.32,98.56,309.86,100.89,309.86,104.77Z"/>
    <path d="M146.71,139.61v1H144V145h2.74v17.25h5.38V145h5.12v-4.41h-5.12v-1c0-1.29.41-2.8,2.41-2.8a6.58,6.58,0,0,1,2.88.67l1.87-3.7a10.4,10.4,0,0,0-5.33-1.38C151.26,132.4,146.71,133.27,146.71,139.61Z"/>
    <path d="M171.92,140.23c-4.91,0-11.29,3.75-11.29,11.25s6.38,11.2,11.29,11.2,11.29-3.62,11.29-11.2S176.83,140.23,171.92,140.23Zm0,17.71a6.49,6.49,0,1,1,6.12-6.46A6.15,6.15,0,0,1,171.92,157.94Z"/>
    <path d="M193.26,146.06v-5.45h-5.37v21.66h5.37v-9.62A7.68,7.68,0,0,1,201,145.4a7.94,7.94,0,0,1,1.33.08v-5.12a8.18,8.18,0,0,0-1.5-.09A7.64,7.64,0,0,0,193.26,146.06Z"/>
    <path d="M231.22,140.23c-3.66,0-6.58,2.37-6.83,3.71v-3.33h-5.33v29.57h5.37V158.81c.46,1.79,3.25,3.87,6.79,3.87,4.62,0,10.37-3.62,10.37-11.24C241.59,144,235.84,140.23,231.22,140.23Zm-.87,17.71a6.49,6.49,0,0,1,0-13c3.12,0,6,2.17,6,6.46S233.47,157.94,230.35,157.94Z"/>
    <path d="M256.06,140.23A11.1,11.1,0,0,0,245,151.48c0,7.45,6,11.2,11.46,11.2,4.16,0,6.83-1.29,8.74-3.33l-3-2.87a9,9,0,0,1-5.62,1.66c-3.12,0-5.62-1.62-6.29-4.79h16.2C267.72,144,261,140.23,256.06,140.23Zm-5.71,9.25a5.9,5.9,0,0,1,5.71-4.67,5.81,5.81,0,0,1,5.75,4.67Z"/>
    <path d="M281.36,140.23c-4.92,0-11.29,3.75-11.29,11.25s6.37,11.2,11.29,11.2,11.28-3.62,11.28-11.2A11.23,11.23,0,0,0,281.36,140.23Zm0,17.71a6.49,6.49,0,1,1,6.12-6.46A6.14,6.14,0,0,1,281.36,157.94Z"/>
    <path d="M308.49,140.23c-3.67,0-6.59,2.37-6.84,3.71v-3.33h-5.33v29.57h5.37V158.81c.46,1.79,3.26,3.87,6.8,3.87,4.61,0,10.36-3.62,10.36-11.24C318.85,144,313.1,140.23,308.49,140.23Zm-.88,17.71a6.49,6.49,0,0,1,0-13c3.12,0,6,2.17,6,6.46S310.73,157.94,307.61,157.94Z"/>
    <rect width="5.37" height="29.45" x="323.49" y="132.82"/>
    <path d="M344.57,140.23a11.1,11.1,0,0,0-11.08,11.25c0,7.45,6,11.2,11.46,11.2,4.17,0,6.83-1.29,8.74-3.33l-2.95-2.87a9,9,0,0,1-5.62,1.66c-3.13,0-5.63-1.62-6.3-4.79H355C356.24,144,349.49,140.23,344.57,140.23Zm-5.7,9.25a5.89,5.89,0,0,1,5.7-4.67,5.81,5.81,0,0,1,5.75,4.67Z"/>
    <path d="M56.06,113.25A19.75,19.75,0,1,0,36.32,93.5,19.77,19.77,0,0,0,56.06,113.25Zm0-34.28A14.54,14.54,0,1,1,41.53,93.5,14.55,14.55,0,0,1,56.06,79Z"/>
    <path d="M101.83,49.8l10.3-10.3-3.69-3.69L98.15,46.12H14L3.68,35.81,0,39.5,10.3,49.8V157.61L0,167.91l3.68,3.68L14,161.29H41.53V138.17a14.54,14.54,0,1,1,29.07,0v23.12H98.15l10.3,10.3,3.68-3.68-10.3-10.3ZM96.62,156.08H75.81V138.17a19.75,19.75,0,0,0-39.49,0v17.91H15.51V51.33H96.62Z"/>
    <path d="M25.69,39.61,51,17.42a9.4,9.4,0,0,0,10.22,0L86.44,39.61l3.44-3.91L64.61,13.51a9.47,9.47,0,1,0-17.09,0L22.25,35.7ZM56.06,5.21a4.26,4.26,0,1,1-4.25,4.25A4.26,4.26,0,0,1,56.06,5.21Z"/>
</svg>
